<svg width="76" height="20" viewBox="0 0 76 20" fill="none" xmlns="http://www.w3.org/2000/svg"><path d="M19.446 19h-4.75l-1.375-3.475h-6.85L5.171 19H.521L7.946 1.3h4.15l7.35 17.7zm-7.3-6.9l-2.2-6.075-2.25 6.075h4.45zM27.884 19h-4.15V.1h4.15V19zM38.58 2.575c0 .633-.233 1.167-.7 1.6-.45.433-1 .65-1.65.65-.65 0-1.208-.217-1.675-.65-.45-.45-.675-.983-.675-1.6 0-.6.225-1.125.675-1.575A2.328 2.328 0 0136.23.325c.65 0 1.2.225 1.65.675.467.433.7.958.7 1.575zM38.28 19h-4.1V6.55h4.1V19zM55.728 7.95c1.333 1.2 2 2.792 2 4.775 0 1.983-.667 3.592-2 4.825-1.334 1.233-2.975 1.85-4.925 1.85-1.934 0-3.567-.617-4.9-1.85-1.334-1.233-2-2.842-2-4.825s.666-3.575 2-4.775c1.333-1.2 2.966-1.8 4.9-1.8 1.95 0 3.591.6 4.925 1.8zm-1.95 4.775c0-.85-.267-1.592-.8-2.225-.534-.633-1.259-.95-2.175-.95-.917 0-1.634.317-2.15.95-.517.617-.775 1.358-.775 2.225s.258 1.625.775 2.275c.533.633 1.258.95 2.175.95.916 0 1.633-.317 2.15-.95.533-.65.8-1.408.8-2.275zM75.624 19h-4.125v-6.8c0-1.75-.617-2.625-1.85-2.625-.7 0-1.242.258-1.625.775-.384.517-.575 1.15-.575 1.9V19h-4.125V6.55h3.975v1.725h.05c.3-.583.783-1.075 1.45-1.475a4.42 4.42 0 012.275-.6c1.55 0 2.691.5 3.425 1.5.75.983 1.125 2.183 1.125 3.6V19z" fill="#fff"/></svg>