<svg width="16" height="16" viewBox="0 0 16 16" fill="none" xmlns="http://www.w3.org/2000/svg"><g clip-path="url(#clip0)"><path d="M7.996.006a7.995 7.995 0 00-6.73 12.31L.022 15.543a.333.333 0 00.423.434l3.332-1.19A7.995 7.995 0 107.996.007z" fill="#4CAF50"/><path class="path-whatsapp" d="M11.807 9.366s-.816-.4-1.327-.666c-.578-.298-1.258.26-1.577.577a4.01 4.01 0 01-1.338-.849 4.006 4.006 0 01-.848-1.337c.317-.32.873-1 .577-1.578a96.156 96.156 0 01-.667-1.328.333.333 0 00-.297-.183h-.666a2.007 2.007 0 00-1.666 1.999c0 1.046 1.252 3.056 2.096 3.9.844.845 2.854 2.097 3.9 2.097a2.007 2.007 0 002-1.666v-.666a.333.333 0 00-.187-.3z" fill="#FAFAFA"/></g><defs><clipPath id="clip0"><path fill="#fff" d="M0 0h16v16H0z"/></clipPath></defs></svg>