<?xml version="1.0" encoding="utf-8"?><svg width="18" height="18" xmlns="http://www.w3.org/2000/svg" viewBox="0 0 18 18"><g clip-path="url(#dclip0)"><path d="M16.204 4.084h-3.876V2.522a1.35 1.35 0 00-1.35-1.349H7.022a1.35 1.35 0 00-1.35 1.349v1.562H1.796c-.987 0-1.79.804-1.79 1.791 0 .897-.093 1.703.587 2.609.385.512.913.878 1.529 1.057l5.975 1.74a3.23 3.23 0 001.808 0l5.975-1.74a2.916 2.916 0 001.529-1.057c.682-.91.587-1.724.587-2.609 0-.987-.803-1.79-1.79-1.79zm-9.39-1.562c0-.114.093-.206.207-.206h3.958c.114 0 .206.092.206.206v1.562h-4.37V2.522z"/><path d="M16.199 10.638C9.754 12.515 9.837 12.553 9 12.553c-.831 0-.634-.004-7.199-1.915A4.046 4.046 0 01.004 9.553v5.483c0 .987.804 1.79 1.791 1.79h14.41c.987 0 1.79-.803 1.79-1.79V9.553a4.046 4.046 0 01-1.796 1.085z"/></g><defs><clipPath id="dclip0"><path d="M0 0h18v18H0z"/></clipPath></defs></svg>