<?xml version="1.0" encoding="utf-8"?><svg width="15" height="16" xmlns="http://www.w3.org/2000/svg" viewBox="0 0 15 16"><g clip-path="url(#aclip0)"><path d="M10.58 5.737a3.084 3.084 0 00-3.08-3.08 3.084 3.084 0 00-3.08 3.08 3.084 3.084 0 003.08 3.08 3.084 3.084 0 003.08-3.08zm-5.722 0A2.645 2.645 0 017.5 3.096a2.645 2.645 0 012.642 2.641A2.645 2.645 0 017.5 8.38a2.645 2.645 0 01-2.642-2.642z"/><path d="M7.604 7.054l.251-.272a.22.22 0 00-.322-.297l-.251.272a.248.248 0 01-.175.079h-.006a.245.245 0 01-.171-.07l-.776-.749a.247.247 0 01.343-.354l.433.418a.219.219 0 00.313-.009l1.25-1.354a.245.245 0 01.35-.014c.099.092.105.248.013.348l-.63.682a.22.22 0 10.323.297l.63-.681a.686.686 0 00-1.007-.93L7.073 5.61l-.272-.263a.686.686 0 00-.952.985l.776.75a.682.682 0 00.98-.028z"/><path d="M15 5.733a.219.219 0 00-.122-.192l-1.917-.954V2.553a.22.22 0 00-.055-.145L11.303.588a.22.22 0 00-.165-.073H2.596a.558.558 0 00-.557.557v3.515l-1.92.955a.223.223 0 00-.12.19l.001 5.448a.22.22 0 10.439 0V6.222l1.675 1.472 3.959 3.48L.439 14.86v-2.676a.22.22 0 10-.439 0v3.081c0 .118.1.22.22.22h14.56a.221.221 0 00.22-.22V5.733zM2.039 7.045L.609 5.788l1.43-.71v1.967zm10.922-1.968l1.43.711-1.43 1.257V5.077zm-1.603-3.763l.682.775.216.245h-.825a.073.073 0 01-.073-.074v-.946zM2.478 7.43V1.072c0-.065.053-.119.118-.119h8.323V2.26c0 .283.23.512.512.512h1.091V7.43l-3.381 2.972-.595.523-.688-.45a.654.654 0 00-.716 0l-.688.45L2.478 7.43zM.955 15.047l6.427-4.206a.216.216 0 01.236 0l6.427 4.206H.955zm13.606-.186l-5.634-3.687.161-.142 5.473-4.81v8.639z"/></g><defs><clipPath id="aclip0"><path transform="translate(0 .5)" d="M0 0h15v15H0z"/></clipPath></defs></svg>