<?xml version="1.0" encoding="utf-8"?><svg width="17" height="17" xmlns="http://www.w3.org/2000/svg" viewBox="0 0 17 17"><g clip-path="url(#kclip0)"><path d="M10.2 0H6.8A5.957 5.957 0 00.85 5.951v2.55a5.953 5.953 0 003.4 5.378v2.84c0 .247.308.376.483.2l2.468-2.467h3c3.28 0 5.95-2.67 5.95-5.95V5.95c0-3.281-2.67-5.95-5.95-5.95z"/><path d="M5.1 13.879A5.953 5.953 0 011.7 8.5v-2.55C1.7 2.67 4.368.001 7.65.001H6.8A5.957 5.957 0 00.85 5.95v2.55a5.953 5.953 0 003.4 5.378v2.84c0 .247.308.376.483.2l.367-.366V13.88z"/><path d="M12.778 10.562l-.255-1.38a.283.283 0 00-.223-.226l-2.004-.401a.284.284 0 00-.255.077l-.815.814C7.855 8.832 7.094 8.07 6.424 6.64l.811-.812a.284.284 0 00.078-.256l-.4-2.004a.283.283 0 00-.227-.223l-1.38-.254a.284.284 0 00-.115.002 1.977 1.977 0 00-.961.531c-.459.458-.634 1.127-.507 1.934.213 1.355.877 3.24 2.102 4.47l.017.017c1.228 1.223 3.114 1.887 4.469 2.1.17.027.335.04.493.04.587 0 1.08-.185 1.44-.546.265-.265.45-.597.532-.962a.287.287 0 00.002-.114zM6.959 6.104l.277-.277-.277.277zM10.04 8.632l-.28.28.28-.28z"/><path d="M11.338 11.65c-.158 0-.322-.013-.493-.04-1.355-.213-3.24-.877-4.469-2.101l-.017-.017c-1.224-1.23-1.888-3.115-2.101-4.47-.103-.651-.008-1.213.274-1.647-.108.073-.21.155-.302.248-.459.458-.634 1.127-.507 1.934.213 1.355.877 3.24 2.102 4.47l.017.016c1.228 1.224 3.114 1.888 4.469 2.101.17.027.335.04.493.04.587 0 1.08-.185 1.44-.546a1.99 1.99 0 00.248-.302c-.32.208-.71.314-1.154.314zM9.067 4.818a.283.283 0 000 .566c.625 0 1.133.509 1.133 1.134 0 .154.129.283.283.283a.286.286 0 00.284-.283c0-.938-.763-1.7-1.7-1.7z"/><path d="M9.067 3.684c-.105 0-.21.006-.315.017a.283.283 0 10.063.564A2.27 2.27 0 0111.32 6.77a.286.286 0 00.25.313.286.286 0 00.313-.25 2.837 2.837 0 00-2.816-3.148z"/><path d="M9.067 2.55a4.04 4.04 0 00-.305.012.283.283 0 00.043.565 3.404 3.404 0 013.571 4.175.286.286 0 00.201.34.286.286 0 00.351-.209 3.972 3.972 0 00-3.861-4.882z"/></g><defs><clipPath id="kclip0"><path d="M0 0h17v17H0z"/></clipPath></defs></svg>