<?xml version="1.0" encoding="utf-8"?><svg viewBox="0 0 76 23" xmlns="http://www.w3.org/2000/svg" xmlns:xlink="http://www.w3.org/1999/xlink"><style>:root>svg{display:none}:root>svg:target{display:block}</style><svg viewBox="0 0 20 20" id="close__icon" xmlns="http://www.w3.org/2000/svg"><path d="M11.105 10l8.666-8.666A.781.781 0 0018.666.23L10 8.896 1.334.23A.781.781 0 10.229 1.334l8.666 8.667L.23 18.667a.781.781 0 101.105 1.105L10 11.106l8.666 8.666a.778.778 0 001.105 0 .781.781 0 000-1.105l-8.666-8.666z"/></svg><svg viewBox="0 0 16 8" id="icon__arrow" xmlns="http://www.w3.org/2000/svg"><path d="M.646 4.354a.5.5 0 010-.707L3.828.465a.5.5 0 11.708.707L1.707 4 4.536 6.83a.5.5 0 01-.708.707L.646 4.354zM16 4.5H1v-1h15v1z"/></svg><svg viewBox="0 0 16 16" id="icon__at" xmlns="http://www.w3.org/2000/svg"><path d="M8 0C3.589 0 0 3.589 0 8s3.589 8 8 8c1.407 0 2.79-.37 4.001-1.07L11 13.197A5.997 5.997 0 018 14c-3.309 0-6-2.691-6-6s2.691-6 6-6 6 2.691 6 6v.871C14 9.525 13.58 10 13 10c-.551 0-1-.449-1-1V5h-1.382A3.966 3.966 0 008 4C5.794 4 4 5.794 4 8s1.794 4 4 4c1.05 0 2-.415 2.714-1.08A2.981 2.981 0 0013 12c1.682 0 3-1.374 3-3.129V8c0-4.411-3.589-8-8-8zm0 10c-1.103 0-2-.897-2-2s.897-2 2-2 2 .897 2 2-.897 2-2 2z"/></svg><svg viewBox="0 0 18 18" id="icon__briefcase" xmlns="http://www.w3.org/2000/svg"><g clip-path="url(#dclip0)"><path d="M16.204 4.084h-3.876V2.522a1.35 1.35 0 00-1.35-1.349H7.022a1.35 1.35 0 00-1.35 1.349v1.562H1.796c-.987 0-1.79.804-1.79 1.791 0 .897-.093 1.703.587 2.609.385.512.913.878 1.529 1.057l5.975 1.74a3.23 3.23 0 001.808 0l5.975-1.74a2.916 2.916 0 001.529-1.057c.682-.91.587-1.724.587-2.609 0-.987-.803-1.79-1.79-1.79zm-9.39-1.562c0-.114.093-.206.207-.206h3.958c.114 0 .206.092.206.206v1.562h-4.37V2.522z"/><path d="M16.199 10.638C9.754 12.515 9.837 12.553 9 12.553c-.831 0-.634-.004-7.199-1.915A4.046 4.046 0 01.004 9.553v5.483c0 .987.804 1.79 1.791 1.79h14.41c.987 0 1.79-.803 1.79-1.79V9.553a4.046 4.046 0 01-1.796 1.085z"/></g><defs><clipPath id="dclip0"><path d="M0 0h18v18H0z"/></clipPath></defs></svg><svg viewBox="0 0 23 23" id="icon__email" xmlns="http://www.w3.org/2000/svg"><path d="M11.5 0C5.159 0 0 5.159 0 11.5S5.159 23 11.5 23c2.022 0 4.01-.532 5.751-1.54l-1.439-2.488a8.621 8.621 0 01-4.312 1.153c-4.756 0-8.625-3.869-8.625-8.625S6.744 2.875 11.5 2.875s8.625 3.869 8.625 8.625v1.252c0 .94-.604 1.623-1.438 1.623a1.44 1.44 0 01-1.437-1.438v-5.75h-1.987C14.252 6.304 12.945 5.75 11.5 5.75c-3.17 0-5.75 2.58-5.75 5.75s2.58 5.75 5.75 5.75c1.51 0 2.875-.597 3.902-1.552.792.94 1.963 1.552 3.286 1.552 2.418 0 4.312-1.976 4.312-4.498V11.5C23 5.159 17.841 0 11.5 0zm0 14.375A2.878 2.878 0 018.625 11.5 2.878 2.878 0 0111.5 8.625a2.878 2.878 0 012.875 2.875 2.878 2.878 0 01-2.875 2.875z"/></svg><svg viewBox="0 0 22 22" id="icon__phone" xmlns="http://www.w3.org/2000/svg"><g clip-path="url(#fclip0)"><path d="M21.401 16.146l-3.07-3.07c-1.097-1.097-2.96-.658-3.4.767-.328.987-1.425 1.535-2.411 1.316-2.194-.548-5.154-3.4-5.702-5.702-.33-.987.329-2.083 1.316-2.412 1.425-.439 1.864-2.303.767-3.4L5.831.576c-.877-.767-2.193-.767-2.96 0L.786 2.66c-2.083 2.193.22 8.004 5.373 13.158 5.153 5.153 10.965 7.566 13.158 5.373l2.083-2.084c.768-.877.768-2.193 0-2.96z"/></g><defs><clipPath id="fclip0"><path d="M0 0h22v22H0z"/></clipPath></defs></svg><svg viewBox="0 0 18 18" id="icon__user" xmlns="http://www.w3.org/2000/svg"><path d="M9 8.803c2.002 0 3.624-1.97 3.624-4.401S12.091 0 9 0C5.91 0 5.376 1.97 5.376 4.402 5.376 6.832 7 8.803 9 8.803zm-6.845 6.72c0-.147 0-.04 0 0zm13.69.117c.001-.041 0-.282 0 0zM15.837 15.346c-.067-4.234-.62-5.441-4.852-6.205 0 0-.596.76-1.985.76-1.388 0-1.984-.76-1.984-.76-4.186.756-4.773 1.944-4.85 6.068-.006.337-.01.354-.01.315v.445S3.164 18 9 18c5.837 0 6.844-2.031 6.844-2.031v-.33c0 .025-.003-.022-.007-.293z"/></svg><svg viewBox="0 0 15 16" id="letter__icon" xmlns="http://www.w3.org/2000/svg"><g clip-path="url(#hclip0)"><path d="M10.58 5.737a3.084 3.084 0 00-3.08-3.08 3.084 3.084 0 00-3.08 3.08 3.084 3.084 0 003.08 3.08 3.084 3.084 0 003.08-3.08zm-5.722 0A2.645 2.645 0 017.5 3.096a2.645 2.645 0 012.642 2.641A2.645 2.645 0 017.5 8.38a2.645 2.645 0 01-2.642-2.642z"/><path d="M7.604 7.054l.251-.272a.22.22 0 00-.322-.297l-.251.272a.248.248 0 01-.175.079h-.006a.245.245 0 01-.171-.07l-.776-.749a.247.247 0 01.343-.354l.433.418a.219.219 0 00.313-.009l1.25-1.354a.245.245 0 01.35-.014c.099.092.105.248.013.348l-.63.682a.22.22 0 10.323.297l.63-.681a.686.686 0 00-1.007-.93L7.073 5.61l-.272-.263a.686.686 0 00-.952.985l.776.75a.682.682 0 00.98-.028z"/><path d="M15 5.733a.219.219 0 00-.122-.192l-1.917-.954V2.553a.22.22 0 00-.055-.145L11.303.588a.22.22 0 00-.165-.073H2.596a.558.558 0 00-.557.557v3.515l-1.92.955a.223.223 0 00-.12.19l.001 5.448a.22.22 0 10.439 0V6.222l1.675 1.472 3.959 3.48L.439 14.86v-2.676a.22.22 0 10-.439 0v3.081c0 .118.1.22.22.22h14.56a.221.221 0 00.22-.22V5.733zM2.039 7.045L.609 5.788l1.43-.71v1.967zm10.922-1.968l1.43.711-1.43 1.257V5.077zm-1.603-3.763l.682.775.216.245h-.825a.073.073 0 01-.073-.074v-.946zM2.478 7.43V1.072c0-.065.053-.119.118-.119h8.323V2.26c0 .283.23.512.512.512h1.091V7.43l-3.381 2.972-.595.523-.688-.45a.654.654 0 00-.716 0l-.688.45L2.478 7.43zM.955 15.047l6.427-4.206a.216.216 0 01.236 0l6.427 4.206H.955zm13.606-.186l-5.634-3.687.161-.142 5.473-4.81v8.639z"/></g><defs><clipPath id="hclip0"><path transform="translate(0 .5)" d="M0 0h15v15H0z"/></clipPath></defs></svg><svg viewBox="0 0 76 20" id="logo__icon" xmlns="http://www.w3.org/2000/svg"><path d="M19.446 19h-4.75l-1.375-3.475h-6.85L5.171 19H.521L7.946 1.3h4.15l7.35 17.7zm-7.3-6.9l-2.2-6.075-2.25 6.075h4.45zM27.884 19h-4.15V.1h4.15V19zM38.58 2.575c0 .633-.233 1.167-.7 1.6-.45.433-1 .65-1.65.65-.65 0-1.208-.217-1.675-.65-.45-.45-.675-.983-.675-1.6 0-.6.225-1.125.675-1.575A2.328 2.328 0 0136.23.325c.65 0 1.2.225 1.65.675.467.433.7.958.7 1.575zM38.28 19h-4.1V6.55h4.1V19zM55.728 7.95c1.333 1.2 2 2.792 2 4.775 0 1.983-.667 3.592-2 4.825-1.334 1.233-2.975 1.85-4.925 1.85-1.934 0-3.567-.617-4.9-1.85-1.334-1.233-2-2.842-2-4.825s.666-3.575 2-4.775c1.333-1.2 2.966-1.8 4.9-1.8 1.95 0 3.591.6 4.925 1.8zm-1.95 4.775c0-.85-.267-1.592-.8-2.225-.534-.633-1.259-.95-2.175-.95-.917 0-1.634.317-2.15.95-.517.617-.775 1.358-.775 2.225s.258 1.625.775 2.275c.533.633 1.258.95 2.175.95.916 0 1.633-.317 2.15-.95.533-.65.8-1.408.8-2.275zM75.624 19h-4.125v-6.8c0-1.75-.617-2.625-1.85-2.625-.7 0-1.242.258-1.625.775-.384.517-.575 1.15-.575 1.9V19h-4.125V6.55h3.975v1.725h.05c.3-.583.783-1.075 1.45-1.475a4.42 4.42 0 012.275-.6c1.55 0 2.691.5 3.425 1.5.75.983 1.125 2.183 1.125 3.6V19z"/></svg><svg viewBox="0 0 16 16" id="telegram__icon" xmlns="http://www.w3.org/2000/svg"><g clip-path="url(#jclip0)"><path d="M6.278 10.12l-.265 3.724c.38 0 .543-.163.74-.358l1.775-1.697 3.679 2.694c.675.376 1.15.178 1.332-.62l2.415-11.315v-.001c.214-.997-.36-1.387-1.018-1.143L.743 6.838c-.969.376-.954.916-.165 1.16l3.629 1.13 8.428-5.274c.397-.263.758-.118.461.145L6.278 10.12z"/></g><defs><clipPath id="jclip0"><path d="M0 0h16v16H0z"/></clipPath></defs></svg><svg viewBox="0 0 17 17" id="viber__icon" xmlns="http://www.w3.org/2000/svg"><g clip-path="url(#kclip0)"><path d="M10.2 0H6.8A5.957 5.957 0 00.85 5.951v2.55a5.953 5.953 0 003.4 5.378v2.84c0 .247.308.376.483.2l2.468-2.467h3c3.28 0 5.95-2.67 5.95-5.95V5.95c0-3.281-2.67-5.95-5.95-5.95z"/><path d="M5.1 13.879A5.953 5.953 0 011.7 8.5v-2.55C1.7 2.67 4.368.001 7.65.001H6.8A5.957 5.957 0 00.85 5.95v2.55a5.953 5.953 0 003.4 5.378v2.84c0 .247.308.376.483.2l.367-.366V13.88z"/><path d="M12.778 10.562l-.255-1.38a.283.283 0 00-.223-.226l-2.004-.401a.284.284 0 00-.255.077l-.815.814C7.855 8.832 7.094 8.07 6.424 6.64l.811-.812a.284.284 0 00.078-.256l-.4-2.004a.283.283 0 00-.227-.223l-1.38-.254a.284.284 0 00-.115.002 1.977 1.977 0 00-.961.531c-.459.458-.634 1.127-.507 1.934.213 1.355.877 3.24 2.102 4.47l.017.017c1.228 1.223 3.114 1.887 4.469 2.1.17.027.335.04.493.04.587 0 1.08-.185 1.44-.546.265-.265.45-.597.532-.962a.287.287 0 00.002-.114zM6.959 6.104l.277-.277-.277.277zM10.04 8.632l-.28.28.28-.28z"/><path d="M11.338 11.65c-.158 0-.322-.013-.493-.04-1.355-.213-3.24-.877-4.469-2.101l-.017-.017c-1.224-1.23-1.888-3.115-2.101-4.47-.103-.651-.008-1.213.274-1.647-.108.073-.21.155-.302.248-.459.458-.634 1.127-.507 1.934.213 1.355.877 3.24 2.102 4.47l.017.016c1.228 1.224 3.114 1.888 4.469 2.101.17.027.335.04.493.04.587 0 1.08-.185 1.44-.546a1.99 1.99 0 00.248-.302c-.32.208-.71.314-1.154.314zM9.067 4.818a.283.283 0 000 .566c.625 0 1.133.509 1.133 1.134 0 .154.129.283.283.283a.286.286 0 00.284-.283c0-.938-.763-1.7-1.7-1.7z"/><path d="M9.067 3.684c-.105 0-.21.006-.315.017a.283.283 0 10.063.564A2.27 2.27 0 0111.32 6.77a.286.286 0 00.25.313.286.286 0 00.313-.25 2.837 2.837 0 00-2.816-3.148z"/><path d="M9.067 2.55a4.04 4.04 0 00-.305.012.283.283 0 00.043.565 3.404 3.404 0 013.571 4.175.286.286 0 00.201.34.286.286 0 00.351-.209 3.972 3.972 0 00-3.861-4.882z"/></g><defs><clipPath id="kclip0"><path d="M0 0h17v17H0z"/></clipPath></defs></svg><svg viewBox="0 0 16 16" id="whatsapp__icon" xmlns="http://www.w3.org/2000/svg"><g clip-path="url(#lclip0)"><path d="M7.996.006a7.995 7.995 0 00-6.73 12.31L.022 15.543a.333.333 0 00.423.434l3.332-1.19A7.995 7.995 0 107.996.007z"/><path class="lpath-whatsapp" d="M11.807 9.366s-.816-.4-1.327-.666c-.578-.298-1.258.26-1.577.577a4.01 4.01 0 01-1.338-.849 4.006 4.006 0 01-.848-1.337c.317-.32.873-1 .577-1.578-.264-.511-.667-1.327-.667-1.328a.333.333 0 00-.297-.183h-.666a2.007 2.007 0 00-1.666 1.999c0 1.046 1.252 3.056 2.096 3.9.844.845 2.854 2.097 3.9 2.097a2.007 2.007 0 002-1.666v-.666a.333.333 0 00-.187-.3z"/></g><defs><clipPath id="lclip0"><path d="M0 0h16v16H0z"/></clipPath></defs></svg></svg>