<svg width="139" height="28" viewBox="0 0 139 28" fill="none" xmlns="http://www.w3.org/2000/svg">
<path d="M5.13691 27.3837H0.00927734V4.55479C0.00927734 3.30146 0.475428 2.31668 1.40772 1.60048C2.34002 0.858706 3.58308 0.500603 5.13691 0.526181V27.3837Z" fill="white"/>
<path d="M8.43701 4.59313C8.43701 3.44208 8.78665 2.48288 9.48583 1.71553C10.185 0.922587 11.1821 0.526123 12.477 0.526123H13.3316L25.063 18.2137V0.526123H30.1906V27.3836H25.2572L13.5646 9.77279V27.3836H8.43701V4.59313Z" fill="white"/>
<path d="M41.8499 4.09416C42.9635 1.25494 45.139 0.116692 48.3762 0.679419L58.7868 27.3835H53.4258L51.3282 21.8968C48.6349 21.8968 47.0036 21.948 46.4336 22.0503C44.6469 22.3061 43.9345 23.0351 44.2972 24.2373C43.1059 23.9048 42.2643 23.3548 41.7722 22.5875C41.2802 21.7945 41.1248 21.0016 41.3061 20.2087C41.4874 19.4157 41.9017 18.7507 42.5491 18.2135C42.834 17.9833 43.1577 17.7915 43.5203 17.638C43.9088 17.459 44.2585 17.3311 44.5689 17.2543C44.8799 17.152 45.2944 17.0881 45.8122 17.0625C46.33 17.0113 46.7184 16.9857 46.9775 16.9857C47.2366 16.9602 47.6638 16.9602 48.2595 16.9857C48.8809 16.9857 49.2693 16.9857 49.4248 16.9857L45.7734 7.77748C43.3649 13.8652 40.8011 20.4005 38.0819 27.3835H32.7212L41.8499 4.09416Z" fill="white"/>
<path d="M66.8263 22.511H76.1492V27.3837H61.6987V4.55479C61.6987 3.30146 62.1647 2.31668 63.097 1.60048C64.0293 0.858706 65.2726 0.500603 66.8263 0.526181V22.511Z" fill="white"/>
<path d="M84.5583 27.3837H79.4307V4.55479C79.4307 3.30146 79.897 2.31668 80.8294 1.60048C81.7617 0.858706 83.0045 0.500603 84.5583 0.526181V27.3837Z" fill="white"/>
<path d="M101.143 0.0273438C104.976 0.0273438 108.252 1.3958 110.971 4.1327C113.717 6.84402 115.089 10.1693 115.089 14.1084C115.089 18.0219 113.742 21.3087 111.049 23.9689C108.33 26.6546 105.041 27.9975 101.182 27.9975C97.1163 27.9975 93.7498 26.6163 91.0825 23.8538C88.4149 21.1169 87.0811 17.83 87.0811 13.9933C87.0811 11.8191 87.4307 10.0541 88.1301 8.69847C88.9331 7.08703 90.2795 6.07666 92.1699 5.66742C94.0607 5.23258 95.6919 5.51395 97.0645 6.5115C98.4371 7.50909 98.8643 8.97985 98.3465 10.9238C97.6733 10.1309 96.8446 9.72161 95.8604 9.69606C94.902 9.67047 94.0476 10.1053 93.2964 11.0005C92.5714 11.8958 92.2348 13.1236 92.2866 14.6839C92.3902 17.3441 93.4519 19.4798 95.472 21.0913C97.1294 22.447 99.0328 23.1248 101.182 23.1248C103.591 23.1248 105.65 22.2551 107.359 20.5158C109.068 18.7509 109.922 16.6023 109.922 14.07C109.922 11.5377 109.068 9.38909 107.359 7.62419C105.598 5.88484 103.5 5.01516 101.066 5.01516C99.9264 5.01516 98.8904 5.18144 97.9581 5.51395C97.0257 4.66987 95.7956 4.22223 94.2675 4.17107C92.7656 4.11992 91.393 4.478 90.1502 5.2454C91.2376 3.91529 92.5457 2.80262 94.0733 1.90737C96.2746 0.654019 98.6313 0.0273438 101.143 0.0273438Z" fill="white"/>
<path d="M117.235 4.59313C117.235 3.44208 117.585 2.48288 118.284 1.71553C118.983 0.922587 119.98 0.526123 121.275 0.526123H122.129L133.861 18.2137V0.526123H138.988V27.3836H134.055L122.362 9.77279V27.3836H117.235V4.59313Z" fill="white"/>
</svg>
