<svg width="105" height="145" viewBox="0 0 105 145" fill="none" xmlns="http://www.w3.org/2000/svg">
<g opacity="0.6">
<g opacity="0.4" filter="url(#filter0_f)">
<path d="M18 130C18 132.761 33.8939 135 53.5 135C73.1061 135 89 132.761 89 130C89 127.239 73.1061 125 53.5 125C33.8939 125 18 127.239 18 130Z" fill="#333333"/>
</g>
<g opacity="0.4" filter="url(#filter1_f)">
<path d="M41 130C41 132.761 46.5964 135 53.5 135C60.4036 135 66 132.761 66 130C66 127.239 60.4036 125 53.5 125C46.5964 125 41 127.239 41 130Z" fill="#333333"/>
</g>
</g>
<path d="M53.4878 132L66 100H39L53.4878 132Z" fill="#4299FF"/>
<circle r="52.5" transform="matrix(-1 0 0 1 52.5 52.5)" fill="#4299FF"/>
<path d="M57.2311 68H50.5811L48.6561 63.135H39.0661L37.2461 68H30.7361L41.1311 43.22H46.9411L57.2311 68ZM47.0111 58.34L43.9311 49.835L40.7811 58.34H47.0111ZM67.4691 68H61.6591V41.54H67.4691V68Z" fill="white"/>
<defs>
<filter id="filter0_f" x="8" y="115" width="91" height="30" filterUnits="userSpaceOnUse" color-interpolation-filters="sRGB">
<feFlood flood-opacity="0" result="BackgroundImageFix"/>
<feBlend mode="normal" in="SourceGraphic" in2="BackgroundImageFix" result="shape"/>
<feGaussianBlur stdDeviation="5" result="effect1_foregroundBlur"/>
</filter>
<filter id="filter1_f" x="31" y="115" width="45" height="30" filterUnits="userSpaceOnUse" color-interpolation-filters="sRGB">
<feFlood flood-opacity="0" result="BackgroundImageFix"/>
<feBlend mode="normal" in="SourceGraphic" in2="BackgroundImageFix" result="shape"/>
<feGaussianBlur stdDeviation="5" result="effect1_foregroundBlur"/>
</filter>
</defs>
</svg>
