<svg width="106" height="24" viewBox="0 0 106 24" fill="none" xmlns="http://www.w3.org/2000/svg"><g clip-path="url(#clip0)"><path d="M23.61 15.315h2.79v8.443h-2.792v-8.443zm.411-.911h-2.103l1.84-2.42h2.495l1.84 2.42h-2.102l-.985-1.303-.985 1.303z" fill="#E42313"/><path d="M27.761 12.143h2.794v11.615H27.76V12.143zm9.791 6.527c-.049-.95-.724-1.729-1.66-1.729-.984 0-1.641.7-1.807 1.729h3.467zm-3.467 1.541c.05 1.155.724 1.92 1.908 1.92.67 0 1.329-.31 1.592-.93h2.614C39.689 23.154 37.863 24 35.958 24c-2.775 0-4.665-1.66-4.665-4.488 0-2.586 2.086-4.441 4.6-4.441 3.056 0 4.584 2.278 4.454 5.14h-6.262zm9.93 2.737c1.477 0 2.048-1.256 2.048-2.498 0-1.311-.598-2.514-2.11-2.514-1.503 0-2.01 1.268-2.01 2.564 0 1.243.65 2.448 2.072 2.448zm3.111.81h-1.101v-.897h-.027c-.36.73-1.218 1.05-2.136 1.05-2.06 0-3.083-1.617-3.083-3.488 0-1.872 1.01-3.45 3.058-3.45.685 0 1.67.255 2.161 1.038h.027v-3.41h1.101v9.156zm5.696-3.95c-.05-1.04-.839-1.872-1.929-1.872-1.153 0-1.839.858-1.916 1.872h3.845zm1.064 1.846c-.299 1.461-1.359 2.257-2.863 2.257-2.137 0-3.148-1.462-3.212-3.487 0-1.99 1.322-3.45 3.148-3.45 2.37 0 3.096 2.193 3.03 3.797h-5.012c-.039 1.155.624 2.177 2.084 2.177.907 0 1.542-.438 1.736-1.294h1.09zm.819-9.511h8.639v2.424h-5.587v2.374h4.83v2.342h-4.83v4.475h-3.052V12.143zm9.197 3.172h2.713v1.48h.029c.413-1.073 1.363-1.645 2.565-1.645.213 0 .442.02.656.069v2.52a3.923 3.923 0 00-1.067-.164c-1.38 0-2.106.945-2.106 2.003v4.18h-2.79v-8.443z" fill="#E42313"/><path d="M73.48 22.293c1.328 0 1.772-.748 1.707-2.488-.393.242-1.117.293-1.725.455-.623.144-1.15.405-1.15 1.074 0 .682.541.959 1.168.959zm-3.615-4.377c.05-1.102.576-1.82 1.329-2.26.756-.421 1.74-.585 2.713-.585 2.019 0 3.975.44 3.975 2.83v3.693c0 .715 0 1.495.33 2.164H75.4c-.098-.262-.132-.52-.164-.797-.723.747-1.79 1.039-2.81 1.039-1.626 0-2.907-.811-2.907-2.553 0-2.748 3.023-2.536 4.96-2.928.478-.097.74-.26.74-.78 0-.633-.77-.878-1.346-.878-.773 0-1.265.343-1.397 1.055h-2.612zm9.035-2.601h2.712v1.155h.032c.51-.862 1.659-1.4 2.678-1.4 2.842 0 3.072 2.05 3.072 3.272v5.416h-2.79v-4.083c0-1.155.13-2.326-1.399-2.326-1.05 0-1.51.877-1.51 1.805v4.604H78.9v-8.443zm15.083 3.092c-.017-.715-.658-1.22-1.363-1.22-1.562 0-1.808 1.316-1.808 2.488 0 1.09.476 2.21 1.66 2.21.968 0 1.464-.551 1.592-1.444h2.712C96.529 22.7 94.756 24 92.488 24c-2.562 0-4.47-1.74-4.47-4.325 0-2.684 1.725-4.604 4.47-4.604 2.12 0 4.009 1.107 4.207 3.336h-2.712zm9.217.263c-.05-.95-.724-1.729-1.662-1.729-.984 0-1.64.7-1.804 1.729h3.466zm-3.466 1.541c.049 1.155.722 1.92 1.905 1.92.672 0 1.331-.31 1.593-.93h2.613c-.51 1.953-2.335 2.799-4.24 2.799-2.776 0-4.665-1.66-4.665-4.488 0-2.586 2.087-4.441 4.598-4.441 3.058 0 4.586 2.278 4.454 5.14h-6.258z" fill="#E42313"/><path d="M27.718 4.804c1.248 0 2.314-.32 2.314-1.763 0-.972-.533-1.694-1.781-1.694h-3.31v3.457h2.777zM23.608.236h4.713c1.879 0 3.043 1.014 3.043 2.597 0 1.194-.533 2.18-1.739 2.512v.028c1.164.222 1.403 1.07 1.5 2.041.085.972.029 2.055.59 2.735h-1.487c-.379-.402-.168-1.471-.365-2.443-.14-.972-.378-1.792-1.668-1.792H24.94v4.235h-1.33V.236zM36.245 0h1.529l-1.837 1.985h-.898L36.245 0zm1.81 5.873c-.057-1.124-.912-2.027-2.09-2.027-1.248 0-1.992.93-2.076 2.027h4.165zm1.15 2c-.323 1.582-1.473 2.443-3.1 2.443-2.314 0-3.408-1.583-3.478-3.777 0-2.152 1.43-3.734 3.408-3.734 2.566 0 3.352 2.374 3.282 4.11h-5.428c-.042 1.249.674 2.36 2.258 2.36.982 0 1.669-.472 1.88-1.402h1.177zm6.423-1.459c0-1.263-.561-2.568-2.062-2.568-1.528 0-2.145 1.236-2.145 2.61 0 1.292.477 2.736 2.047 2.736 1.571 0 2.16-1.43 2.16-2.778zm1.178 3.125c0 2.332-1.08 3.526-3.366 3.526-1.36 0-2.93-.541-3-2.11h1.191c.056.86 1.094 1.166 1.88 1.166 1.556 0 2.173-1.11 2.173-2.721v-.472h-.028c-.393.874-1.346 1.305-2.258 1.305-2.16 0-3.24-1.68-3.24-3.638 0-1.694.842-3.79 3.352-3.79.912 0 1.725.402 2.16 1.194h.014V2.97h1.122v6.57zm1.866-6.568h1.192v7.178h-1.192V2.971zm1.192-1.291H48.67V.236h1.193V1.68zm4.979 7.594c1.248 0 2.258-.971 2.258-2.707 0-1.749-1.01-2.721-2.258-2.721-1.249 0-2.258.972-2.258 2.721 0 1.736 1.01 2.707 2.258 2.707zm0-6.47c2.3 0 3.52 1.653 3.52 3.763 0 2.097-1.22 3.749-3.52 3.749s-3.52-1.652-3.52-3.749c0-2.11 1.22-3.762 3.52-3.762zm4.923.167h1.121V4.11h.029c.505-.889 1.318-1.305 2.355-1.305 1.908 0 2.497 1.083 2.497 2.624v4.72h-1.192V5.29c0-.874-.561-1.443-1.473-1.443-1.444 0-2.145.958-2.145 2.25v4.053h-1.192V2.971z" fill="#2A327C"/><path d="M14.284 8.761c-.063.025-.29.092-.272.101-.019-.009-.033-.012-.032-.028.025-.086-.375.283-.394.14-.011-.023.02.007-.037-.008.146.02-.894.346-.894.328a.299.299 0 01.028-.31c.082-.204-.178-.496-.08-.41-.07-.07-.07-.137-.003-.208.045.031.002-.01.026-.101.029-.018-.054-.13.022-.09.065-.02.173-.384.095-.643-.17-.393-.098-3.23-.011-3.121.03-.196-.153-.341-.066-.486.007-.149-.136-.154-.117-.255-.077-.3-.503-.294-.456-.357-.225.049-1.054 1.37-1.062 1.403.05-.048-.561.863-.55.866-.067-.015-.143.103-.157.24-.006.016-.347.433-.31.351-.118.194-.256.38-.363.578.083-.053-.151.16-.116.153.005-.023-.264.642-.267.584.025-.089-.331.328-.369.33-.075.303-1.208-.437-1.229-.776.003-.012-.023-.314-.176-.35.067.059-.805-.728-.74-.667-.455-.6-.814-.584-1.489-1.168.005-.009-.157-.38-.271-.511-.255.062-.6.454-.527.55-.11.046-.13-.09-.172-.137-.035.148.112 1.001.112 1.001-.017.123.058.756.086.662l.05.055c0 .006-.078.095.017.156.104.18.313.309.239.56-.092.046.01.377-.006.27-.102.522 1.137 1.505.966 2.203-.08.062.236.433.171.416-.107.125-.427.204-.651.263-.065.038-.133.004-.203-.017-.068-.013-.63-.24-.788-.134-.006.016-.466-.106-.47-.086.083-.092-.526.128-.434-.068.04-.152-.53.16-.39.078-.009.006-.248.139-.242.1.019-.053-.217-.006-.163.007-.036-.01-.278-.079-.242-.056-.134-.087-.162.032-.32-.044-.01.018-.19.043-.224.034-.01-.004-.356.012-.356.002.027-.012-.303.095-.325.01.012-.016-.26.19-.337.063.034-.105-.308.085-.362.093-.041-.008-.214-.082-.18-.029a3.937 3.937 0 00-.243.275c.04.012 1.174.854.996.722 0 0 .122.1.42.276-.047.126.438.006.359.279.45-.264 1.375.967 1.7.772.04 0 .18.215.224.198-.073-.063.235.1.138.094.043.05.027.032.174.183.37-.017.527.285.649.387.406.773-1.278 1.52-1.423 1.91-.006.02-.006.037-.028.03.019.019-.236.11-.265.232l-.253.324c-.225-.063-.795.834-1.026.95l-.55.251s-.077.075-.128.15c-.05.079-.126.169-.181.188-.047.019-.389.352-.389.352l-.084.158.137.06s-.088.103-.102.147c-.019.038-.068.15.039.174.11.025.172.025.198.077.024.052.466.085.502.078.033-.011.252-.107.252-.107.213-.067.908-.057.988.012-.014-.003 1.01-.25 1.037-.331.033.005.63-.208.63-.208.164-.075.538-.135.657-.27-.114.022.481-.181.65-.1.05.028 1.486-.267 1.535-.449.116.012.129.119.136.125-.034.188-.005.71-.076.8.003-.075-.2.136-.132.247.145.045.137-.007.227.203-.042-.095.01.421-.002.607.005.1.166.428-.1.558 0 0-.15.31-.157.305.02-.152.02.077-.01.034.135-.063.095.343.065.393.025-.064-.07.078-.08.03-.217.421.24.468-.024.515.113.033.172.593.164.51.026.19.01.37-.048.55-.038-.117-.102.214-.082.303.044.21-.062.607.14.699-.03-.083.153.192.153.192.473.199.59-.415.8-.511.071-.015.153-.298.221-.276.007-.022.291-1.369.51-1.299-.01 0 .367-.553.443-.79-.002.017-.18-.193.197-.355.184.06.269-.424.316-.7.012-.158.125-.082.14-.25-.002.047.326-.496.38-.719.053.004.061-.246.1-.212-.103-.087.088-.19.063-.267.035-.134.024-.253.083-.243.055-.26.22-.147.257-.123.079.042.186-.024.2.17-.076.096.244.188.217.248-.01-.046 1.53 1.752 1.956 2.096.02.019 1.212 1.19 1.16 1.178.132.068.243.305.252.288-.05.076.227.2.276.2.18.314.19.25.286.196.032.14.272.072.36.118-.027-.068.188-.127.141-.202.065.023-.044-.253.016-.22-.076-.132-.528-.727-.497-.836.01-.036.065-.023.098-.015-.006-.035-.057-.072-.089-.097.083-.002.101-.045.056-.132-.081.044-.193-.464-.122-.536.029-.13-.369-1.721-.557-1.877.013-.056-.065-.406-.08-.436-.31-.193-.053-.578-.268-.645-.05.095-.274-.267-.306-.57-.104-.187 0-.636-.07-.57-.062-.068.322-.23.417-.023.811.304 2.36-.2 2.92.23.132-.248.43-.055.27-.1-.024.029.028.044.065.054-.075-.016.545-.055.639-.006-.239-.058.35-.02.327-.029-.21-.045.418.075 1.087-.336.24-.073.196-.196.296-.424-.04.194.063-.194-.14-.317-1.185-.294-2.127-1.159-3.307-1.465-.457-.096-1.195-1.204-1.588-1.134.714-.807 1.407-1.61 2.143-2.297.145-.137 1.62-1.714 1.62-1.695.056-.08.139-.342.133-.23.002-.037-.016-.087-.056-.143-.002.019-.554-.408-.698-.142.194.12-.394.161-.538.194-.044.027-.082.016-.115.007-.148-.036-.34.13-.439.153-.216-.19-.757.163-1.002.245.02-.011-.106.015-.297-.026-.082.134-.08.096-.06.084-.07.038-.131.098-.42.196.033.012-.182.102-.265.08.007.038-.032.138-.159.114-.095-.025-.083-.06-.118-.025z" fill="#E42313"/></g><defs><clipPath id="clip0"><path fill="#fff" d="M0 0h106v24H0z"/></clipPath></defs></svg>