<svg width="73" height="21" viewBox="0 0 73 21" fill="none" xmlns="http://www.w3.org/2000/svg"><path d="M12.155 12.037l-2.294-6.21-2.307 6.21h4.601zm1.345 3.507H6.21L4.587 20H.264L7.699 1.095h4.311L19.446 20h-4.324L13.5 15.544zm13.653-14.45V20H23.5V1.095h3.652zm9.46 5.67V20h-3.651V6.764h3.651zm-.316-5.247c.387.369.58.86.58 1.476 0 .607-.193 1.094-.58 1.464-.387.369-.914.553-1.582.553-.615 0-1.107-.184-1.477-.553-.36-.37-.54-.857-.54-1.464 0-.615.184-1.107.554-1.476.369-.37.857-.554 1.463-.554.668 0 1.195.184 1.582.554zm9.922 9.373c-.642.677-.962 1.512-.962 2.505 0 .984.32 1.815.962 2.492.642.668 1.402 1.002 2.28 1.002.88 0 1.64-.334 2.282-1.002.641-.677.962-1.508.962-2.492 0-.993-.32-1.828-.962-2.505-.642-.677-1.402-1.015-2.281-1.015-.88 0-1.64.338-2.281 1.015zm7.198-2.32c1.398 1.37 2.096 2.975 2.096 4.812 0 1.837-.698 3.445-2.096 4.825-1.388 1.371-3.028 2.057-4.917 2.057-1.89 0-3.533-.686-4.93-2.057-1.398-1.38-2.097-2.988-2.097-4.825 0-1.837.699-3.441 2.096-4.812C44.967 7.19 46.61 6.5 48.5 6.5c1.89 0 3.53.69 4.918 2.07zM63.88 6.764v1.621c.105-.14.255-.312.448-.514.193-.21.615-.492 1.266-.844a4.34 4.34 0 012.07-.527c1.511 0 2.742.523 3.69 1.569.959 1.046 1.438 2.456 1.438 4.232V20h-3.639v-7.29c0-.81-.242-1.46-.725-1.952-.474-.5-1.09-.751-1.846-.751-.826 0-1.485.272-1.977.817-.484.536-.725 1.301-.725 2.294V20h-3.64V6.764h3.639z" fill="#49A3FE"/></svg>