<svg width="92" height="112" viewBox="0 0 92 112" fill="none" xmlns="http://www.w3.org/2000/svg"><g opacity=".6"><g filter="url(#filter0_f)"><path d="M82 101.631l-22.68-3.738H33.403L82 101.63z" fill="#333"/></g><g opacity=".4" filter="url(#filter1_f)"><path d="M10.224 97.145c0 2.064 15.566 3.738 34.766 3.738 19.201 0 34.767-1.674 34.767-3.738 0-2.065-15.566-3.739-34.767-3.739-19.2 0-34.766 1.674-34.766 3.739z" fill="#333"/></g></g><path d="M82.252 98.5L63.935 69.715H43L82.252 98.5z" fill="#4299FF"/><circle r="39.252" transform="matrix(-1 0 0 1 42.252 39.434)" fill="#4299FF"/><path d="M38.579 42.704l-1.7-4.6-1.709 4.6h3.409zm.996 2.598h-5.4l-1.202 3.3H29.77L35.278 34.6h3.193l5.508 14.004h-3.203l-1.201-3.301zm10.113-10.703v14.004h-2.705V34.599h2.705z" fill="#fff"/><defs><filter id="filter0_f" x="23.402" y="87.893" width="68.598" height="23.738" filterUnits="userSpaceOnUse" color-interpolation-filters="sRGB"><feFlood flood-opacity="0" result="BackgroundImageFix"/><feBlend in="SourceGraphic" in2="BackgroundImageFix" result="shape"/><feGaussianBlur stdDeviation="5" result="effect1_foregroundBlur"/></filter><filter id="filter1_f" x=".224" y="83.406" width="89.533" height="27.477" filterUnits="userSpaceOnUse" color-interpolation-filters="sRGB"><feFlood flood-opacity="0" result="BackgroundImageFix"/><feBlend in="SourceGraphic" in2="BackgroundImageFix" result="shape"/><feGaussianBlur stdDeviation="5" result="effect1_foregroundBlur"/></filter></defs></svg>